<mxfile host="app.diagrams.net" modified="2020-03-23T04:44:36.657Z" agent="Mozilla/5.0 (Macintosh; Intel Mac OS X 10_14_6) AppleWebKit/537.36 (KHTML, like Gecko) Chrome/80.0.3987.149 Safari/537.36" etag="OCYnP_eqk7xsdMaYRaBg" version="12.8.8" type="github">
  <diagram id="ewiyI6Ya4YxJHakEgsau" name="Page-1">
    <mxGraphModel dx="2212" dy="771" grid="1" gridSize="10" guides="1" tooltips="1" connect="1" arrows="1" fold="1" page="1" pageScale="1" pageWidth="827" pageHeight="1169" math="0" shadow="0">
      <root>
        <mxCell id="0" />
        <mxCell id="1" parent="0" />
        <mxCell id="YWar3o_qTFHEqiDnkTcQ-3" value="" style="rounded=1;whiteSpace=wrap;html=1;" vertex="1" parent="1">
          <mxGeometry x="140" y="130" width="820" height="460" as="geometry" />
        </mxCell>
        <mxCell id="YWar3o_qTFHEqiDnkTcQ-4" value="" style="rounded=1;whiteSpace=wrap;html=1;" vertex="1" parent="1">
          <mxGeometry x="-150" y="130" width="230" height="460" as="geometry" />
        </mxCell>
        <mxCell id="YWar3o_qTFHEqiDnkTcQ-5" value="" style="rounded=1;whiteSpace=wrap;html=1;" vertex="1" parent="1">
          <mxGeometry x="-130" y="670" width="1110" height="140" as="geometry" />
        </mxCell>
        <mxCell id="YWar3o_qTFHEqiDnkTcQ-6" value="" style="rounded=1;whiteSpace=wrap;html=1;" vertex="1" parent="1">
          <mxGeometry x="1010" y="130" width="160" height="660" as="geometry" />
        </mxCell>
        <mxCell id="YWar3o_qTFHEqiDnkTcQ-7" value="Restful API / RPC API" style="rounded=0;whiteSpace=wrap;html=1;" vertex="1" parent="1">
          <mxGeometry x="414" y="80" width="460" height="30" as="geometry" />
        </mxCell>
        <mxCell id="YWar3o_qTFHEqiDnkTcQ-8" value="Query Vector" style="text;html=1;strokeColor=none;fillColor=none;align=center;verticalAlign=middle;whiteSpace=wrap;rounded=0;" vertex="1" parent="1">
          <mxGeometry x="420" y="50" width="120" height="20" as="geometry" />
        </mxCell>
        <mxCell id="YWar3o_qTFHEqiDnkTcQ-9" value="Insert Vector" style="text;html=1;strokeColor=none;fillColor=none;align=center;verticalAlign=middle;whiteSpace=wrap;rounded=0;" vertex="1" parent="1">
          <mxGeometry x="754" y="50" width="120" height="20" as="geometry" />
        </mxCell>
        <mxCell id="YWar3o_qTFHEqiDnkTcQ-10" value="Authority Service" style="rounded=0;whiteSpace=wrap;html=1;" vertex="1" parent="1">
          <mxGeometry x="480" y="140" width="330" height="20" as="geometry" />
        </mxCell>
        <mxCell id="YWar3o_qTFHEqiDnkTcQ-11" value="" style="rounded=0;whiteSpace=wrap;html=1;" vertex="1" parent="1">
          <mxGeometry x="400" y="190" width="160" height="90" as="geometry" />
        </mxCell>
        <mxCell id="YWar3o_qTFHEqiDnkTcQ-12" value="VQL&lt;br&gt;(Vector Query Language)" style="rounded=0;whiteSpace=wrap;html=1;" vertex="1" parent="1">
          <mxGeometry x="410" y="200" width="140" height="35" as="geometry" />
        </mxCell>
        <mxCell id="YWar3o_qTFHEqiDnkTcQ-13" value="VQL Parser" style="rounded=0;whiteSpace=wrap;html=1;" vertex="1" parent="1">
          <mxGeometry x="410" y="240" width="140" height="30" as="geometry" />
        </mxCell>
        <mxCell id="YWar3o_qTFHEqiDnkTcQ-14" value="&lt;font style=&quot;font-size: 20px&quot;&gt;Meta&lt;br&gt;Data&lt;/font&gt;" style="ellipse;whiteSpace=wrap;html=1;aspect=fixed;" vertex="1" parent="1">
          <mxGeometry x="425" y="330" width="110" height="110" as="geometry" />
        </mxCell>
        <mxCell id="YWar3o_qTFHEqiDnkTcQ-15" value="Gamma Engine" style="text;html=1;strokeColor=none;fillColor=none;align=center;verticalAlign=middle;whiteSpace=wrap;rounded=0;" vertex="1" parent="1">
          <mxGeometry x="-90" y="140" width="110" height="20" as="geometry" />
        </mxCell>
      </root>
    </mxGraphModel>
  </diagram>
</mxfile>
